<?xml version="1.0" encoding="UTF-8" standalone="no"?>
<svg
   width="455"
   height="340"
   viewBox="0 0 455 340"
   fill="none"
   version="1.1"
   id="svg263"
   sodipodi:docname="saide-wall-design.svg"
   inkscape:version="1.1 (c68e22c387, 2021-05-23)"
   xmlns:inkscape="http://www.inkscape.org/namespaces/inkscape"
   xmlns:sodipodi="http://sodipodi.sourceforge.net/DTD/sodipodi-0.dtd"
   xmlns="http://www.w3.org/2000/svg"
   xmlns:svg="http://www.w3.org/2000/svg">
  <sodipodi:namedview
     id="namedview265"
     pagecolor="#505050"
     bordercolor="#ffffff"
     borderopacity="1"
     inkscape:pageshadow="0"
     inkscape:pageopacity="0"
     inkscape:pagecheckerboard="1"
     showgrid="false"
     inkscape:snap-nodes="false"
     height="311px"
     inkscape:zoom="0.48711801"
     inkscape:cx="132.41145"
     inkscape:cy="134.46434"
     inkscape:window-width="1440"
     inkscape:window-height="847"
     inkscape:window-x="-8"
     inkscape:window-y="-8"
     inkscape:window-maximized="1"
     inkscape:current-layer="svg263" />
  <path
     opacity="0.1"
     d="m 406.54085,287.67393 c -3.54149,1.82655 -7.25179,3.40319 -10.90775,4.95121 -13.52404,5.70759 -27.25697,11.4743 -41.77963,13.43439 -27.29131,3.65689 -55.44771,-6.29419 -82.25638,-0.0849 -22.4574,5.1849 -41.02899,21.07247 -62.96848,28.14876 -10.20097,3.28873 -20.81494,4.57734 -31.52334,4.57734 h -1.38302 c -1.31817,0 -2.63154,-0.0497 -3.94972,-0.0992 -10.85719,-0.40824 -21.76017,-1.99061 -32.4037,-4.06513 -33.60837,-6.46872 -67.812677,-18.32646 -93.507207,-40.1553 74.815437,-13.67761 228.927867,-34.66614 360.679227,-6.70718 z"
     fill="#252223"
     id="path4"
     style="stroke-width:0.953809" />
  <path
     opacity="0.3"
     d="M 432.61795,123.99576 V 92.15098 h -18.90066 v 31.84478 H 391.33524 V 74.73542 H 374.92213 V 37.91462 H 361.49252 V 0.099 h -27.8531 v 37.81562 h -13.42866 v 36.8208 H 304.29457 V 30.45108 h -8.95339 V 8.06045 h -5.47104 v 22.39063 h -31.83238 v 141.31233 h -24.37074 v -14.92709 h -14.92136 v 14.92709 h -24.3717 V 123.99576 H 150.60468 V 92.15098 h -18.90066 v 31.84478 h -0.99481 v 61.20202 H 110.81469 V 149.37277 H 86.94011 v 35.82501 H 67.044929 V 74.73542 H 51.626246 V 37.91462 H -5.074873 v 36.8208 h -14.921348 v 194.55292 h 87.04115 63.664281 63.66475 63.6638 46.25681 87.04067 H 455 V 123.99576 Z"
     fill="#155f6e"
     id="path6"
     style="stroke-width:0.953809" />
  <path
     opacity="0.4"
     d="M 10.343838,86.18015 H -10.546086 V 98.12182 H 10.343838 Z"
     fill="#ffffff"
     id="path8"
     style="stroke-width:0.953809" />
  <path
     opacity="0.4"
     d="M 36.207467,98.12182 H 57.097382 V 86.18015 H 36.207467 Z"
     fill="#ffffff"
     id="path10"
     style="stroke-width:0.953809" />
  <path
     opacity="0.4"
     d="m 10.343838,109.56655 h -20.889924 v 11.94168 h 20.889924 z"
     fill="#ffffff"
     id="path12"
     style="stroke-width:0.953809" />
  <path
     opacity="0.4"
     d="M 36.207467,121.50823 H 57.097382 V 109.56655 H 36.207467 Z"
     fill="#ffffff"
     id="path14"
     style="stroke-width:0.953809" />
  <path
     opacity="0.4"
     d="m 10.343838,132.95202 h -20.889924 v 11.94166 h 20.889924 z"
     fill="#ffffff"
     id="path16"
     style="stroke-width:0.953809" />
  <path
     opacity="0.4"
     d="M 36.207467,144.89368 H 57.097382 V 132.95202 H 36.207467 Z"
     fill="#ffffff"
     id="path18"
     style="stroke-width:0.953809" />
  <path
     opacity="0.4"
     d="M 10.343838,156.33843 H -10.546086 V 168.2801 H 10.343838 Z"
     fill="#ffffff"
     id="path20"
     style="stroke-width:0.953809" />
  <path
     opacity="0.4"
     d="M 36.207467,168.2801 H 57.097382 V 156.33843 H 36.207467 Z"
     fill="#ffffff"
     id="path22"
     style="stroke-width:0.953809" />
  <path
     opacity="0.4"
     d="M 10.343838,179.72484 H -10.546086 V 191.6665 H 10.343838 Z"
     fill="#ffffff"
     id="path24"
     style="stroke-width:0.953809" />
  <path
     opacity="0.4"
     d="M 36.207467,191.6665 H 57.097382 V 179.72484 H 36.207467 Z"
     fill="#ffffff"
     id="path26"
     style="stroke-width:0.953809" />
  <path
     opacity="0.4"
     d="m 10.343838,203.11126 h -20.889924 v 11.94167 h 20.889924 z"
     fill="#ffffff"
     id="path28"
     style="stroke-width:0.953809" />
  <path
     opacity="0.4"
     d="M 36.207467,215.05293 H 57.097382 V 203.11126 H 36.207467 Z"
     fill="#ffffff"
     id="path30"
     style="stroke-width:0.953809" />
  <path
     opacity="0.4"
     d="m 10.343838,226.49671 h -20.889924 v 11.94167 h 20.889924 z"
     fill="#ffffff"
     id="path32"
     style="stroke-width:0.953809" />
  <path
     opacity="0.4"
     d="M 36.207467,238.43838 H 57.097382 V 226.49671 H 36.207467 Z"
     fill="#ffffff"
     id="path34"
     style="stroke-width:0.953809" />
  <path
     opacity="0.4"
     d="M 123.24852,197.13946 H 74.505708 v 5.9718 h 48.742812 z"
     fill="#ffffff"
     id="path36"
     style="stroke-width:0.953809" />
  <path
     opacity="0.4"
     d="M 123.24852,206.09667 H 74.505708 v 5.97084 h 48.742812 z"
     fill="#ffffff"
     id="path38"
     style="stroke-width:0.953809" />
  <path
     opacity="0.4"
     d="M 123.24852,215.05293 H 74.505708 v 5.97083 h 48.742812 z"
     fill="#ffffff"
     id="path40"
     style="stroke-width:0.953809" />
  <path
     opacity="0.4"
     d="m 250.57708,200.12487 h -48.74244 v 5.9718 h 48.74244 z"
     fill="#ffffff"
     id="path42"
     style="stroke-width:0.953809" />
  <path
     opacity="0.4"
     d="m 250.57708,209.08209 h -48.74244 v 5.97084 h 48.74244 z"
     fill="#ffffff"
     id="path44"
     style="stroke-width:0.953809" />
  <path
     opacity="0.4"
     d="m 250.57708,218.03834 h -48.74244 v 5.97084 h 48.74244 z"
     fill="#ffffff"
     id="path46"
     style="stroke-width:0.953809" />
  <path
     opacity="0.4"
     d="M 123.24852,224.00918 H 74.505708 v 5.97084 h 48.742812 z"
     fill="#ffffff"
     id="path48"
     style="stroke-width:0.953809" />
  <path
     opacity="0.4"
     d="M 123.24852,232.96543 H 74.505708 v 5.97084 h 48.742812 z"
     fill="#ffffff"
     id="path50"
     style="stroke-width:0.953809" />
  <path
     opacity="0.4"
     d="M 123.24852,241.92168 H 74.505708 v 5.97084 h 48.742812 z"
     fill="#ffffff"
     id="path52"
     style="stroke-width:0.953809" />
  <path
     opacity="0.4"
     d="m 154.58397,135.44051 h -13.42962 v 17.41462 h 13.42962 z"
     fill="#ffffff"
     id="path54"
     style="stroke-width:0.953809" />
  <path
     opacity="0.4"
     d="m 170.4992,152.85513 h 13.42962 V 135.44051 H 170.4992 Z"
     fill="#ffffff"
     id="path56"
     style="stroke-width:0.953809" />
  <path
     opacity="0.4"
     d="m 154.58397,163.30408 h -13.42962 v 17.41558 h 13.42962 z"
     fill="#ffffff"
     id="path58"
     style="stroke-width:0.953809" />
  <path
     opacity="0.4"
     d="m 170.4992,180.71966 h 13.42962 V 163.30408 H 170.4992 Z"
     fill="#ffffff"
     id="path60"
     style="stroke-width:0.953809" />
  <path
     opacity="0.4"
     d="m 154.58397,191.16862 h -13.42962 v 17.41558 h 13.42962 z"
     fill="#ffffff"
     id="path62"
     style="stroke-width:0.953809" />
  <path
     opacity="0.4"
     d="m 170.4992,208.5842 h 13.42962 V 191.16862 H 170.4992 Z"
     fill="#ffffff"
     id="path64"
     style="stroke-width:0.953809" />
  <path
     opacity="0.4"
     d="m 154.58397,219.03316 h -13.42962 v 17.41558 h 13.42962 z"
     fill="#ffffff"
     id="path66"
     style="stroke-width:0.953809" />
  <path
     opacity="0.4"
     d="m 170.4992,236.44874 h 13.42962 V 219.03316 H 170.4992 Z"
     fill="#ffffff"
     id="path68"
     style="stroke-width:0.953809" />
  <path
     opacity="0.4"
     d="M 275.9436,41.89582 H 258.03776 V 64.78434 H 275.9436 Z"
     fill="#ffffff"
     id="path70"
     style="stroke-width:0.953809" />
  <path
     opacity="0.4"
     d="M 275.9436,74.73542 H 258.03776 V 97.62394 H 275.9436 Z"
     fill="#ffffff"
     id="path72"
     style="stroke-width:0.953809" />
  <path
     opacity="0.4"
     d="m 275.9436,107.57597 h -17.90584 v 22.88851 h 17.90584 z"
     fill="#ffffff"
     id="path74"
     style="stroke-width:0.953809" />
  <path
     opacity="0.4"
     d="m 275.9436,140.41557 h -17.90584 v 22.88851 h 17.90584 z"
     fill="#ffffff"
     id="path76"
     style="stroke-width:0.953809" />
  <path
     opacity="0.4"
     d="m 275.9436,173.25611 h -17.90584 v 22.88853 h 17.90584 z"
     fill="#ffffff"
     id="path78"
     style="stroke-width:0.953809" />
  <path
     opacity="0.4"
     d="m 275.9436,206.09667 h -17.90584 v 22.88852 h 17.90584 z"
     fill="#ffffff"
     id="path80"
     style="stroke-width:0.953809" />
  <path
     opacity="0.4"
     d="m 381.13904,88.66768 h -66.64826 v 19.40617 h 66.64826 z"
     fill="#ffffff"
     id="path82"
     style="stroke-width:0.953809" />
  <path
     opacity="0.4"
     d="m 381.38799,130.46448 h -66.64827 v 19.40522 h 66.64827 z"
     fill="#ffffff"
     id="path84"
     style="stroke-width:0.953809" />
  <path
     opacity="0.4"
     d="M 381.63693,172.2613 H 314.9877 v 19.4052 h 66.64923 z"
     fill="#ffffff"
     id="path86"
     style="stroke-width:0.953809" />
  <path
     opacity="0.4"
     d="m 381.88492,214.05715 h -66.64827 v 19.40618 h 66.64827 z"
     fill="#ffffff"
     id="path88"
     style="stroke-width:0.953809" />
  <path
     opacity="0.4"
     d="m 3.877937,48.36358 h -8.95281 v 18.90829 h 8.95281 z"
     fill="#ffffff"
     id="path90"
     style="stroke-width:0.953809" />
  <path
     opacity="0.4"
     d="m 455,135.44051 h -22.38205 v 28.85935 H 455 Z"
     fill="#ffffff"
     id="path92"
     style="stroke-width:0.953809" />
  <path
     opacity="0.4"
     d="m 455,177.23636 h -22.38205 v 28.86031 H 455 Z"
     fill="#ffffff"
     id="path94"
     style="stroke-width:0.953809" />
  <path
     opacity="0.4"
     d="m 455,219.03316 h -22.38205 v 28.85936 H 455 Z"
     fill="#ffffff"
     id="path96"
     style="stroke-width:0.953809" />
  <path
     d="m 4.708589,238.71212 c 0,0 -39.158621,23.63535 33.025925,60.02312 0,0 15.916093,-29.53657 -1.681181,-53.61925 -3.413106,-4.6956 -8.42937,-7.9748 -14.098231,-9.2176 -5.668957,-1.24281 -11.596575,-0.3615 -16.659606,2.47609 z"
     fill="#155f6e"
     id="path98"
     style="stroke-width:0.953809" />
  <path
     d="m 5.161152,238.21519 c 0,0 33.508379,25.64979 32.573267,60.52005"
     stroke="#535461"
     stroke-miterlimit="10"
     id="path100"
     style="stroke-width:0.953809" />
  <path
     d="m 39.554855,300.07915 c 0,0 -12.270258,-41.67757 2.302875,-72.35299 6.112762,-12.87258 8.142084,-27.32755 5.317,-41.29891 -1.349351,-6.63469 -3.305611,-13.13013 -5.84417,-19.40617"
     stroke="#535461"
     stroke-width="1.90762"
     stroke-miterlimit="10"
     id="path102" />
  <path
     d="m 50.382767,147.66068 c 0,5.10479 -9.241251,19.90311 -9.241251,19.90311 0,0 -9.246308,-14.81264 -9.246308,-19.90311 -0.02852,-1.23232 0.189427,-2.45796 0.64115,-3.60539 0.451628,-1.14647 1.127973,-2.19185 1.989166,-3.07316 0.861193,-0.88228 1.889875,-1.58237 3.025572,-2.06119 1.135795,-0.47785 2.35562,-0.72489 3.587939,-0.72489 1.232225,0 2.452144,0.24704 3.587844,0.72489 1.135698,0.47882 2.16438,1.17891 3.025573,2.06119 0.861192,0.88131 1.537537,1.92669 1.989261,3.07316 0.451723,1.14743 0.669668,2.37307 0.641054,3.60539 z"
     fill="#155f6e"
     id="path104"
     style="stroke-width:0.953809" />
  <path
     d="m 65.682128,175.95253 c -2.775294,4.28927 -18.581986,11.69368 -18.581986,11.69368 0,0 0.283472,-17.46041 3.058862,-21.74395 1.348016,-2.02398 3.438381,-3.43467 5.818608,-3.92874 2.380227,-0.49312 4.858982,-0.0286 6.899558,1.29241 2.040672,1.32103 3.479205,3.39365 4.00418,5.76768 0.524882,2.37499 0.09414,4.8606 -1.199222,6.91892 z"
     fill="#155f6e"
     id="path106"
     style="stroke-width:0.953809" />
  <path
     d="m 65.010744,224.30295 c -4.556054,2.29867 -21.93939,0.70582 -21.93939,0.70582 0,0 9.057262,-14.92709 13.618181,-17.22577 2.185554,-1.06732 4.703511,-1.23041 7.008291,-0.45401 2.304782,0.77736 4.210966,2.43125 5.305365,4.60402 1.094495,2.17278 1.289168,4.68892 0.541858,7.00477 -0.747308,2.31489 -2.376411,4.24254 -4.534305,5.36517 z"
     fill="#155f6e"
     id="path108"
     style="stroke-width:0.953809" />
  <path
     d="m 56.271766,260.76988 c -4.103375,3.03501 -21.501686,4.4085 -21.501686,4.4085 0,0 6.401289,-16.24525 10.509625,-19.28122 1.974478,-1.40115 4.419467,-1.97153 6.810092,-1.59 2.390528,0.38247 4.535832,1.68728 5.975127,3.63495 1.439201,1.94768 2.05765,4.3818 1.722387,6.78062 -0.335264,2.39787 -1.597533,4.5697 -3.515545,6.04715 z"
     fill="#155f6e"
     id="path110"
     style="stroke-width:0.953809" />
  <path
     d="m 27.687391,188.63626 c 3.660713,3.55771 20.725763,7.24513 20.725763,7.24513 0,0 -4.177963,-16.95298 -7.843638,-20.51068 -0.870635,-0.84603 -1.899412,-1.51274 -3.02748,-1.96104 -1.128068,-0.44828 -2.333491,-0.67052 -3.547211,-0.6524 -1.21372,0.0172 -2.412179,0.27375 -3.5268,0.75446 -1.114715,0.48168 -2.123748,1.17701 -2.969584,2.04783 -0.845837,0.87179 -1.511977,1.90094 -1.960266,3.02929 -0.448194,1.12836 -0.669954,2.33397 -0.652404,3.54817 0.01755,1.21419 0.274028,2.41313 0.754748,3.52813 0.480719,1.115 1.176236,2.12508 2.046872,2.97111 z"
     fill="#155f6e"
     id="path112"
     style="stroke-width:0.953809" />
  <path
     d="m 18.008436,231.41263 c 4.555958,2.3044 21.939389,0.71154 21.939389,0.71154 0,0 -9.057262,-14.92709 -13.61322,-17.22577 -1.086768,-0.5761 -2.277407,-0.929 -3.502191,-1.03869 -1.22488,-0.10969 -2.459298,0.0257 -3.631051,0.39869 -1.171753,0.37389 -2.257281,0.9767 -3.193156,1.77503 -0.935781,0.79834 -1.703025,1.77504 -2.256806,2.87383 -0.55378,1.09783 -0.883035,2.29581 -0.968305,3.52337 -0.08536,1.22754 0.07488,2.45892 0.471277,3.62351 0.396402,1.16459 1.02105,2.23859 1.837414,3.15902 0.816269,0.91945 1.807848,1.66821 2.916649,2.19947 z"
     fill="#155f6e"
     id="path114"
     style="stroke-width:0.953809" />
  <path
     d="m 14.302989,274.28438 c 4.103376,3.03501 21.506645,4.4085 21.506645,4.4085 0,0 -6.406248,-16.24621 -10.514584,-19.28122 -1.974382,-1.40115 -4.419468,-1.97248 -6.809996,-1.59001 -2.390528,0.38249 -4.535928,1.68729 -5.975128,3.63497 -1.439297,1.94672 -2.057716,4.38179 -1.722444,6.77966 0.335273,2.39882 1.597495,4.57066 3.515507,6.0481 z"
     fill="#155f6e"
     id="path116"
     style="stroke-width:0.953809" />
  <path
     opacity="0.25"
     d="m 50.382767,147.66068 c 0,5.10479 -9.241251,19.90311 -9.241251,19.90311 0,0 -9.246308,-14.81264 -9.246308,-19.90311 -0.02852,-1.23232 0.189427,-2.45796 0.64115,-3.60539 0.451628,-1.14647 1.127973,-2.19185 1.989166,-3.07316 0.861193,-0.88228 1.889875,-1.58237 3.025572,-2.06119 1.135795,-0.47785 2.35562,-0.72489 3.587939,-0.72489 1.232225,0 2.452144,0.24704 3.587844,0.72489 1.135698,0.47882 2.16438,1.17891 3.025573,2.06119 0.861192,0.88131 1.537537,1.92669 1.989261,3.07316 0.451723,1.14743 0.669668,2.37307 0.641054,3.60539 z"
     fill="#000000"
     id="path118"
     style="stroke-width:0.953809" />
  <path
     opacity="0.25"
     d="m 65.682128,175.95253 c -2.775294,4.28927 -18.581986,11.69368 -18.581986,11.69368 0,0 0.283472,-17.46041 3.058862,-21.74395 1.348016,-2.02398 3.438381,-3.43467 5.818608,-3.92874 2.380227,-0.49312 4.858982,-0.0286 6.899558,1.29241 2.040672,1.32103 3.479205,3.39365 4.00418,5.76768 0.524882,2.37499 0.09414,4.8606 -1.199222,6.91892 z"
     fill="#000000"
     id="path120"
     style="stroke-width:0.953809" />
  <path
     opacity="0.25"
     d="m 65.010744,224.30295 c -4.556054,2.29867 -21.93939,0.70582 -21.93939,0.70582 0,0 9.057262,-14.92709 13.618181,-17.22577 2.185554,-1.06732 4.703511,-1.23041 7.008291,-0.45401 2.304782,0.77736 4.210966,2.43125 5.305365,4.60402 1.094495,2.17278 1.289168,4.68892 0.541858,7.00477 -0.747308,2.31489 -2.376411,4.24254 -4.534305,5.36517 z"
     fill="#000000"
     id="path122"
     style="stroke-width:0.953809" />
  <path
     opacity="0.25"
     d="m 56.271766,260.76988 c -4.103375,3.03501 -21.501686,4.4085 -21.501686,4.4085 0,0 6.401289,-16.24525 10.509625,-19.28122 1.974478,-1.40115 4.419467,-1.97153 6.810092,-1.59 2.390528,0.38247 4.535832,1.68728 5.975127,3.63495 1.439201,1.94768 2.05765,4.3818 1.722387,6.78062 -0.335264,2.39787 -1.597533,4.5697 -3.515545,6.04715 z"
     fill="#000000"
     id="path124"
     style="stroke-width:0.953809" />
  <path
     opacity="0.25"
     d="m 27.687391,188.63626 c 3.660713,3.55771 20.725763,7.24513 20.725763,7.24513 0,0 -4.177963,-16.95298 -7.843638,-20.51068 -0.870635,-0.84603 -1.899412,-1.51274 -3.02748,-1.96104 -1.128068,-0.44828 -2.333491,-0.67052 -3.547211,-0.6524 -1.21372,0.0172 -2.412179,0.27375 -3.5268,0.75446 -1.114715,0.48168 -2.123748,1.17701 -2.969584,2.04783 -0.845837,0.87179 -1.511977,1.90094 -1.960266,3.02929 -0.448194,1.12836 -0.669954,2.33397 -0.652404,3.54817 0.01755,1.21419 0.274028,2.41313 0.754748,3.52813 0.480719,1.115 1.176236,2.12508 2.046872,2.97111 z"
     fill="#000000"
     id="path126"
     style="stroke-width:0.953809" />
  <path
     opacity="0.25"
     d="m 18.008436,231.41263 c 4.555958,2.3044 21.939389,0.71154 21.939389,0.71154 0,0 -9.057262,-14.92709 -13.61322,-17.22577 -1.086768,-0.5761 -2.277407,-0.929 -3.502191,-1.03869 -1.22488,-0.10969 -2.459298,0.0257 -3.631051,0.39869 -1.171753,0.37389 -2.257281,0.9767 -3.193156,1.77503 -0.935781,0.79834 -1.703025,1.77504 -2.256806,2.87383 -0.55378,1.09783 -0.883035,2.29581 -0.968305,3.52337 -0.08536,1.22754 0.07488,2.45892 0.471277,3.62351 0.396402,1.16459 1.02105,2.23859 1.837414,3.15902 0.816269,0.91945 1.807848,1.66821 2.916649,2.19947 z"
     fill="#000000"
     id="path128"
     style="stroke-width:0.953809" />
  <path
     opacity="0.25"
     d="m 14.302989,274.28438 c 4.103376,3.03501 21.506645,4.4085 21.506645,4.4085 0,0 -6.406248,-16.24621 -10.514584,-19.28122 -1.974382,-1.40115 -4.419468,-1.97248 -6.809996,-1.59001 -2.390528,0.38249 -4.535928,1.68729 -5.975128,3.63497 -1.439297,1.94672 -2.057716,4.38179 -1.722444,6.77966 0.335273,2.39882 1.597495,4.57066 3.515507,6.0481 z"
     fill="#000000"
     id="path130"
     style="stroke-width:0.953809" />
  <path
     d="m 422.561,289.31639 c 0,0 -12.27074,-41.67758 2.30249,-72.35299 6.11296,-12.87258 8.14742,-27.32659 5.32225,-41.29892 -1.35346,-6.63279 -3.30971,-13.12822 -5.84398,-19.40521"
     stroke="#535461"
     stroke-width="1.90762"
     stroke-miterlimit="10"
     id="path132" />
  <path
     d="m 433.40866,136.89792 c 0,5.10573 -9.24621,19.9031 -9.24621,19.9031 0,0 -9.24621,-14.81263 -9.24621,-19.9031 0,-2.45319 0.97383,-4.80624 2.70785,-6.54026 1.73403,-1.73497 4.08612,-2.70976 6.53836,-2.70976 2.45223,0 4.80432,0.97479 6.53834,2.70976 1.73403,1.73402 2.70787,4.08707 2.70787,6.54026 z"
     fill="#155f6e"
     id="path134"
     style="stroke-width:0.953809" />
  <path
     d="m 448.68866,165.19071 c -2.77558,4.28832 -18.58208,11.69273 -18.58208,11.69273 0,0 0.28804,-17.4604 3.06362,-21.74395 1.33246,-2.05927 3.42703,-3.50333 5.82491,-4.01648 2.39692,-0.5141 4.8997,-0.0535 6.95802,1.28 2.05736,1.33248 3.50144,3.42894 4.01458,5.82681 0.51314,2.39788 0.0525,4.90162 -1.27905,6.96089 z"
     fill="#155f6e"
     id="path136"
     style="stroke-width:0.953809" />
  <path
     d="m 448.02194,213.54018 c -4.5611,2.29868 -21.94425,0.70677 -21.94425,0.70677 0,0 9.06213,-14.92804 13.61751,-17.22672 2.18995,-1.10451 4.72898,-1.29336 7.05818,-0.52554 2.3292,0.76781 4.2578,2.4303 5.36134,4.62119 1.10452,2.18995 1.29337,4.72993 0.52556,7.06009 -0.76686,2.33015 -2.42839,4.2597 -4.61834,5.36421 z"
     fill="#155f6e"
     id="path138"
     style="stroke-width:0.953809" />
  <path
     d="m 439.28316,250.00711 c -4.109,3.03597 -21.50646,4.4085 -21.50646,4.4085 0,0 6.40578,-16.24525 10.50905,-19.28122 1.97248,-1.43548 4.43235,-2.03256 6.84358,-1.66153 2.41122,0.37007 4.57827,1.67966 6.02902,3.64163 1.45073,1.96199 2.06785,4.41804 1.71684,6.83308 -0.35195,2.41504 -1.64245,4.59258 -3.59203,6.05954 z"
     fill="#155f6e"
     id="path140"
     style="stroke-width:0.953809" />
  <path
     d="m 410.69373,177.85824 c 3.66548,3.5577 20.72529,7.24512 20.72529,7.24512 0,0 -4.17769,-16.95203 -7.8384,-20.50973 -0.86701,-0.86701 -1.89617,-1.55184 -3.03025,-2.01635 -1.13312,-0.46545 -2.34827,-0.70009 -3.57296,-0.69055 -1.22564,0.009 -2.43603,0.26135 -3.56343,0.74205 -1.12644,0.48169 -2.14607,1.18178 -2.99972,2.06023 -0.85461,0.87942 -1.52514,1.91906 -1.97342,3.05982 -0.4483,1.1398 -0.66673,2.35876 -0.64002,3.58345 0.0257,1.22565 0.29474,2.43317 0.79166,3.55389 0.49599,1.12072 1.21039,2.13081 2.10125,2.97207 z"
     fill="#155f6e"
     id="path142"
     style="stroke-width:0.953809" />
  <path
     d="m 401.03451,220.65082 c 4.56111,2.30344 21.94426,0.71154 21.94426,0.71154 0,0 -9.05736,-14.92804 -13.61848,-17.22672 -1.08637,-0.5761 -2.27673,-0.929 -3.50236,-1.0387 -1.2247,-0.10969 -2.45892,0.0257 -3.6302,0.39964 -1.17224,0.37295 -2.25766,0.97671 -3.19335,1.77408 -0.93568,0.79834 -1.70349,1.77505 -2.25671,2.87384 -0.55416,1.09878 -0.88322,2.29676 -0.96811,3.52336 -0.0858,1.22754 0.0744,2.45987 0.47118,3.62447 0.39583,1.1646 1.02057,2.23764 1.83703,3.15805 0.81647,0.92042 1.80747,1.66821 2.91674,2.20044 z"
     fill="#155f6e"
     id="path144"
     style="stroke-width:0.953809" />
  <path
     d="m 397.30894,263.52161 c 4.10805,3.03502 21.50646,4.40849 21.50646,4.40849 0,0 -6.40577,-16.24048 -10.50906,-19.28122 -1.97247,-1.43547 -4.43329,-2.03255 -6.84356,-1.66248 -2.41123,0.37104 -4.57828,1.67965 -6.02902,3.64164 -1.45075,1.96198 -2.06785,4.41804 -1.71686,6.83308 0.35197,2.41504 1.64246,4.59353 3.59204,6.06049 z"
     fill="#155f6e"
     id="path146"
     style="stroke-width:0.953809" />
  <path
     d="m 367.2125,285.2608 c 0,0 -6.59463,-22.39065 1.23899,-38.88102 3.32497,-6.89317 4.32838,-14.6791 2.85951,-22.19129 -0.72775,-3.56247 -1.7798,-7.04959 -3.14374,-10.4194"
     stroke="#535461"
     stroke-width="1.90762"
     stroke-miterlimit="10"
     id="path148" />
  <path
     d="m 373.04217,203.34969 c 0,2.74698 -4.97411,10.70746 -4.97411,10.70746 0,0 -4.97315,-7.96048 -4.97315,-10.70746 0,-1.32006 0.52364,-2.58575 1.45646,-3.51858 0.93283,-0.93283 2.19757,-1.45743 3.51669,-1.45743 1.31912,0 2.58483,0.5246 3.51765,1.45743 0.93186,0.93283 1.45646,2.19852 1.45646,3.51858 z"
     fill="#155f6e"
     id="path150"
     style="stroke-width:0.953809" />
  <path
     d="m 381.25349,218.5553 c -1.49175,2.3044 -9.98731,6.28464 -9.98731,6.28464 0,0 0.15452,-9.38451 1.64627,-11.68796 0.74397,-1.04251 1.86088,-1.75692 3.118,-1.99632 1.25807,-0.23941 2.55906,0.0152 3.63305,0.71154 1.07495,0.69628 1.8399,1.7798 2.13557,3.02549 0.29569,1.24566 0.10111,2.55715 -0.54558,3.66261 z"
     fill="#155f6e"
     id="path152"
     style="stroke-width:0.953809" />
  <path
     d="m 380.89582,244.53416 c -2.45224,1.23423 -11.79288,0.37771 -11.79288,0.37771 0,0 4.86919,-8.02058 7.31667,-9.2548 1.1684,-0.52745 2.49515,-0.58468 3.70457,-0.15738 1.20849,0.42732 2.20617,1.30577 2.78322,2.45129 0.57801,1.14457 0.69151,2.46941 0.31572,3.69601 -0.37486,1.22659 -1.20848,2.26052 -2.3273,2.88717 z"
     fill="#155f6e"
     id="path154"
     style="stroke-width:0.953809" />
  <path
     d="m 376.19546,264.13396 c -2.2033,1.63196 -11.55443,2.3683 -11.55443,2.3683 0,0 3.44229,-8.72734 5.65036,-10.35931 0.52078,-0.43112 1.12454,-0.7516 1.77312,-0.9414 0.64859,-0.18981 1.32961,-0.24513 2.00014,-0.1631 0.67053,0.082 1.31816,0.30044 1.90189,0.64096 0.58374,0.34051 1.09211,0.79642 1.49367,1.34104 0.4025,0.54368 0.68865,1.16365 0.84317,1.82178 0.1545,0.65813 0.17262,1.34106 0.0544,2.00681 -0.11827,0.66576 -0.37103,1.30004 -0.74302,1.8647 -0.37198,0.5656 -0.85462,1.04823 -1.41926,1.42022 z"
     fill="#155f6e"
     id="path156"
     style="stroke-width:0.953809" />
  <path
     d="m 360.83628,225.37216 c 1.98965,1.91048 11.13666,3.89155 11.13666,3.89155 0,0 -2.24334,-9.11079 -4.21296,-11.02126 -0.46068,-0.49121 -1.01486,-0.88418 -1.63101,-1.15506 -0.61616,-0.26993 -1.28096,-0.41299 -1.9534,-0.41872 -0.67339,-0.006 -1.3401,0.12399 -1.96103,0.38344 -0.62092,0.25943 -1.18272,0.6419 -1.65199,1.12548 -0.46832,0.48263 -0.83458,1.05588 -1.07589,1.68348 -0.24132,0.62855 -0.35196,1.30003 -0.32621,1.97247 0.0248,0.67244 0.18695,1.33343 0.475,1.941 0.28804,0.60852 0.69627,1.1522 1.20083,1.59762 z"
     fill="#155f6e"
     id="path158"
     style="stroke-width:0.953809" />
  <path
     d="m 355.63423,248.36084 c 2.45128,1.23327 11.79193,0.38247 11.79193,0.38247 0,0 -4.8692,-8.02056 -7.32049,-9.25956 -1.16937,-0.52841 -2.49611,-0.58468 -3.70554,-0.15737 -1.20847,0.4273 -2.20615,1.30576 -2.78321,2.45033 -0.578,1.14552 -0.69055,2.46941 -0.31571,3.69599 0.37485,1.22756 1.20847,2.26148 2.3273,2.88814 z"
     fill="#155f6e"
     id="path160"
     style="stroke-width:0.953809" />
  <path
     d="m 353.64459,271.40292 c 2.20328,1.63292 11.55346,2.36926 11.55346,2.36926 0,0 -3.45659,-8.73306 -5.64463,-10.36502 -1.06349,-0.72299 -2.36449,-1.00627 -3.63115,-0.79071 -1.2676,0.21555 -2.40169,0.91375 -3.16569,1.94767 -0.764,1.03393 -1.09783,2.32348 -0.93282,3.59872 0.16596,1.27429 0.81837,2.43603 1.82083,3.24008 z"
     fill="#155f6e"
     id="path162"
     style="stroke-width:0.953809" />
  <path
     opacity="0.1"
     d="m 111.65022,23.82307 h -3.42226 c 0.32335,0.0152 0.64668,-0.0362 0.94999,-0.14975 0.30331,-0.11351 0.58086,-0.28806 0.81551,-0.51124 0.23369,-0.22415 0.42063,-0.49313 0.54748,-0.79166 0.12781,-0.29759 0.19362,-0.61903 0.19362,-0.94236 0,-0.3243 -0.0658,-0.64574 -0.19362,-0.94332 -0.12685,-0.29854 -0.31379,-0.56752 -0.54748,-0.79071 -0.23465,-0.22414 -0.5122,-0.39869 -0.81551,-0.5122 -0.30331,-0.1135 -0.62664,-0.16499 -0.94999,-0.14974 H 80.50898 c -0.32364,-0.0152 -0.646979,0.0362 -0.950381,0.14974 -0.303405,0.11351 -0.580678,0.28806 -0.814932,0.5122 -0.234257,0.22319 -0.420725,0.49217 -0.548155,0.79071 -0.127332,0.29758 -0.193051,0.61902 -0.193051,0.94332 0,0.32333 0.06572,0.64477 0.193051,0.94236 0.12743,0.29853 0.313898,0.56751 0.548155,0.79166 0.234254,0.22318 0.511527,0.39773 0.814932,0.51124 0.303402,0.1135 0.626741,0.16501 0.950381,0.14975 h 3.42197 c -0.6358,0 -1.24559,0.25275 -1.6952,0.70296 -0.44953,0.45019 -0.70219,1.05967 -0.70219,1.69587 0,0.63618 0.25266,1.24566 0.70219,1.69587 0.44961,0.45019 1.0594,0.70199 1.6952,0.70199 h -4.789737 c -0.323722,-0.0143 -0.646967,0.0362 -0.95047,0.15071 -0.303405,0.1135 -0.580583,0.2871 -0.814837,0.51123 -0.234255,0.22415 -0.420725,0.49313 -0.548153,0.79166 -0.127429,0.2976 -0.193051,0.61808 -0.193051,0.94237 0,0.3243 0.06562,0.64477 0.193051,0.94331 0.127428,0.29759 0.313898,0.56751 0.548153,0.79071 0.234254,0.22415 0.511432,0.3987 0.814837,0.5122 0.303503,0.11349 0.626748,0.165 0.95047,0.14974 H 106.8602 c 0.32334,0.0152 0.64668,-0.0362 0.94998,-0.14974 0.30332,-0.1135 0.58089,-0.28805 0.81551,-0.5122 0.23369,-0.2232 0.42064,-0.49312 0.5475,-0.79071 0.1278,-0.29854 0.19362,-0.61901 0.19362,-0.94331 0,-0.32429 -0.0658,-0.64477 -0.19362,-0.94237 -0.12686,-0.29853 -0.31381,-0.56751 -0.5475,-0.79166 -0.23462,-0.22413 -0.51219,-0.39773 -0.81551,-0.51123 -0.3033,-0.11446 -0.62664,-0.16502 -0.94998,-0.15071 h 4.79002 c 0.63524,0 1.24567,-0.2518 1.69492,-0.70199 0.44924,-0.45021 0.702,-1.05969 0.702,-1.69587 0,-0.6362 -0.25276,-1.24568 -0.702,-1.69587 -0.44925,-0.45021 -1.05968,-0.70296 -1.69492,-0.70296 z"
     fill="#252223"
     id="path164"
     style="stroke-width:0.953809" />
  <path
     opacity="0.1"
     d="m 234.00467,84.03027 h -3.42131 c 0.32335,0.0152 0.64668,-0.0362 0.95,-0.14975 0.30331,-0.1135 0.58086,-0.28805 0.81454,-0.51219 0.23465,-0.2232 0.42159,-0.49313 0.54844,-0.79071 0.12782,-0.29854 0.19268,-0.61902 0.19268,-0.94331 0,-0.3243 -0.0649,-0.64477 -0.19268,-0.94237 -0.12685,-0.29854 -0.31379,-0.56751 -0.54844,-0.79166 -0.23368,-0.22414 -0.51123,-0.39774 -0.81454,-0.51124 -0.30332,-0.11445 -0.62665,-0.16501 -0.95,-0.1507 H 202.8638 c -0.32334,-0.0143 -0.64668,0.0362 -0.94999,0.1507 -0.30332,0.1135 -0.58087,0.2871 -0.81551,0.51124 -0.23368,0.22415 -0.42062,0.49312 -0.54748,0.79166 -0.12781,0.2976 -0.19362,0.61807 -0.19362,0.94237 0,0.32429 0.0658,0.64477 0.19362,0.94331 0.12686,0.29758 0.3138,0.56751 0.54748,0.79071 0.23464,0.22414 0.51219,0.39869 0.81551,0.51219 0.30331,0.1135 0.62665,0.16501 0.94999,0.14975 h 3.42227 c -0.6362,0 -1.24568,0.25276 -1.69492,0.70295 -0.4502,0.44926 -0.70296,1.05968 -0.70296,1.69587 0,0.63619 0.25276,1.24568 0.70296,1.69587 0.44924,0.44925 1.05872,0.70201 1.69492,0.70201 h -4.79002 c -0.32335,-0.0143 -0.6467,0.0362 -0.94999,0.14975 -0.30332,0.11445 -0.58089,0.28805 -0.81552,0.51219 -0.23368,0.22414 -0.42063,0.49312 -0.54748,0.7907 -0.1278,0.29855 -0.19362,0.61903 -0.19362,0.94332 0,0.3243 0.0659,0.64478 0.19362,0.94331 0.12685,0.2976 0.3138,0.56657 0.54748,0.79071 0.23463,0.22415 0.5122,0.39775 0.81552,0.5122 0.30329,0.11351 0.62664,0.16405 0.94999,0.14974 h 27.71955 c 0.32334,0.0143 0.64669,-0.0362 0.94999,-0.14974 0.30332,-0.11445 0.58088,-0.28805 0.81456,-0.5122 0.23463,-0.22414 0.42063,-0.49311 0.54843,-0.79071 0.12782,-0.29853 0.19268,-0.61901 0.19268,-0.94331 0,-0.32429 -0.0649,-0.64477 -0.19268,-0.94332 -0.1278,-0.29758 -0.3138,-0.56656 -0.54843,-0.7907 -0.23368,-0.22414 -0.51124,-0.39774 -0.81456,-0.51219 -0.3033,-0.11351 -0.62665,-0.16406 -0.94999,-0.14975 h 4.78907 c 0.31475,0 0.62665,-0.062 0.91757,-0.18219 0.2909,-0.12112 0.55511,-0.29758 0.7783,-0.51982 0.22224,-0.22318 0.39869,-0.48739 0.51887,-0.7783 0.12114,-0.29091 0.18313,-0.60281 0.18313,-0.91757 0,-0.31571 -0.062,-0.6276 -0.18313,-0.91851 -0.12018,-0.29092 -0.29663,-0.55512 -0.51887,-0.77736 -0.22319,-0.22319 -0.4874,-0.39963 -0.7783,-0.51981 -0.29092,-0.12114 -0.60282,-0.18314 -0.91757,-0.18314 z"
     fill="#252223"
     id="path166"
     style="stroke-width:0.953809" />
  <path
     opacity="0.1"
     d="m 442.40688,5.41268 h -3.42227 c 0.32335,0.0152 0.64669,-0.0362 0.94999,-0.14975 0.30332,-0.11352 0.58088,-0.28806 0.81551,-0.51124 0.23369,-0.22415 0.42064,-0.49313 0.54749,-0.79167 0.1278,-0.29758 0.19362,-0.61903 0.19362,-0.94235 0,-0.3243 -0.0658,-0.64575 -0.19362,-0.94333 -0.12685,-0.29758 -0.3138,-0.56751 -0.54749,-0.7907 -0.23463,-0.22414 -0.51219,-0.39869 -0.81551,-0.5122 -0.3033,-0.11351 -0.62664,-0.165 -0.94999,-0.14975 h -27.7186 c -0.32429,-0.0152 -0.64764,0.0362 -0.95095,0.14975 -0.30331,0.11351 -0.58086,0.28806 -0.81456,0.5122 -0.23462,0.22319 -0.42062,0.49312 -0.54842,0.7907 -0.12782,0.29758 -0.19268,0.61903 -0.19268,0.94333 0,0.32332 0.0649,0.64477 0.19268,0.94235 0.1278,0.29854 0.3138,0.56752 0.54842,0.79167 0.2337,0.22318 0.51125,0.39772 0.81456,0.51124 0.30331,0.1135 0.62666,0.165 0.95095,0.14975 h 3.42131 c -0.63524,0 -1.24567,0.25275 -1.69492,0.70295 -0.44924,0.45019 -0.702,1.05968 -0.702,1.69587 0,0.63618 0.25276,1.24567 0.702,1.69587 0.44925,0.45019 1.05968,0.70199 1.69492,0.70199 h -4.78907 c -0.3243,-0.0143 -0.64763,0.0362 -0.95095,0.15072 -0.30331,0.1135 -0.58086,0.28804 -0.81454,0.51123 -0.23464,0.22414 -0.42064,0.49312 -0.54844,0.79166 -0.12782,0.29759 -0.19268,0.61808 -0.19268,0.94237 0,0.32429 0.0649,0.64477 0.19268,0.94331 0.1278,0.29759 0.3138,0.56752 0.54844,0.79071 0.23368,0.22415 0.51123,0.39869 0.81454,0.51219 0.30332,0.1135 0.62665,0.165 0.95095,0.14975 h 27.71861 c 0.32333,0.0152 0.64668,-0.0362 0.95,-0.14975 0.30329,-0.1135 0.58086,-0.28804 0.8155,-0.51219 0.23367,-0.22319 0.42062,-0.49312 0.54748,-0.79071 0.12782,-0.29854 0.19363,-0.61902 0.19363,-0.94331 0,-0.32429 -0.0658,-0.64478 -0.19363,-0.94237 -0.12686,-0.29854 -0.31381,-0.56752 -0.54748,-0.79166 -0.23464,-0.22319 -0.51221,-0.39773 -0.8155,-0.51123 -0.30332,-0.11447 -0.62667,-0.16502 -0.95,-0.15072 h 4.79002 c 0.63523,0 1.24472,-0.2518 1.69492,-0.70199 0.44923,-0.4502 0.702,-1.05969 0.702,-1.69587 0,-0.63619 -0.25277,-1.24568 -0.702,-1.69587 -0.4502,-0.4502 -1.05969,-0.70295 -1.69492,-0.70295 z"
     fill="#252223"
     id="path168"
     style="stroke-width:0.953809" />
  <path
     d="m 330.90389,263.23833 c 0.19841,0 0.38821,-0.0792 0.52747,-0.21843 0.1402,-0.14021 0.21841,-0.33 0.21841,-0.5284 0,-0.19744 -0.0782,-0.38725 -0.21841,-0.52746 -0.13926,-0.1402 -0.32906,-0.21841 -0.52747,-0.21841 -0.19743,0 -0.38723,0.0782 -0.52744,0.21841 -0.14021,0.14021 -0.21843,0.33002 -0.21843,0.52746 0,0.1984 0.0782,0.38819 0.21843,0.5284 0.14021,0.13926 0.33001,0.21843 0.52744,0.21843 z"
     fill="#535461"
     id="path170"
     style="stroke-width:0.953809" />
  <g
     opacity="0.5"
     id="g174"
     transform="matrix(0.95380767,0,0,0.95380767,1.941355,-553.10944)">
    <path
       opacity="0.5"
       d="m 249.221,811.107 -7.577,-35.682 h 0.777 l -0.12,-0.605 h 0.219 l -3.921,-19.302 c 0,0 0.198,-20.163 1.152,-27.962 0.699,-5.692 1.804,-12.943 0.996,-19.047 0.112,-0.168 0.214,-0.342 0.308,-0.521 0.334,-0.649 0.536,-1.359 0.594,-2.087 0.292,-1.706 0.063,-3.46 -0.657,-5.034 l 7.879,-4.925 c 0.178,0 0.36,0.037 0.522,0.047 0,-0.073 -0.073,-0.188 -0.13,-0.339 3.727,0.196 7.42,-0.804 10.54,-2.854 3.12,-2.05 5.503,-5.044 6.804,-8.544 0.693,1.042 1.551,1.965 2.539,2.733 2.122,1.591 5.465,1.946 7.233,-0.031 0.644,-0.789 1.079,-1.727 1.267,-2.728 0.104,-0.449 0.177,-0.908 0.24,-1.362 1.001,-5.332 -1.194,-10.83 -4.026,-15.504 -3.541,-5.838 -8.239,-11.122 -14.21,-14.44 -5.971,-3.318 -13.297,-4.508 -19.758,-2.296 -6.461,2.212 -12.969,8.217 -13.558,15.025 -0.292,3.479 0.125,5.091 -0.595,8.508 -0.36,1.701 0.417,5.013 0.407,6.892 -0.063,0.344 -0.105,0.693 -0.125,1.043 -0.104,2.087 0.725,4.058 1.33,6.062 -8.521,0.428 -30.929,2.154 -37.4,8.738 -8.051,8.185 -27.794,11.111 -27.794,11.111 l -32.879,6.621 -11.472,4.872 0.131,0.522 -0.23,0.099 c 0,0 0.407,1.518 0.991,3.521 -2.559,2.318 -4.235,5.452 -4.74,8.869 -0.636,3.542 -0.297,8.101 1.945,13.918 0,0 11.321,20.799 12.103,29.188 l 14.288,28.53 c -1.225,2.447 -13.469,27.174 -15.576,41.014 -0.167,0.997 -0.28,2.002 -0.339,3.01 0,0 -0.078,0.731 -0.271,1.946 -0.84,5.128 -3.494,17.737 -9.976,23.632 l 0.084,0.073 -0.188,0.183 0.146,0.125 c -1.945,3.719 0.866,8.759 0.866,8.759 l 3.196,14.283 3.578,0.579 3.765,-1.533 2.085,4.011 c 0,0 16.244,2.609 20.859,2.457 4.615,-0.151 -3.911,-7.976 -6.899,-10.298 -1.658,-1.283 -2.957,-6.557 -3.781,-10.997 0.435,-0.353 0.826,-0.757 1.163,-1.205 0,0 -1.987,-10.433 3.995,-24.748 2.55,-6.093 5.293,-13.099 7.613,-19.135 1.246,8.107 2.555,16.459 3.52,22.161 1.403,8.258 1.22,13.297 0.787,16.14 -0.08,0.992 -0.314,1.966 -0.693,2.885 0.019,0.027 0.037,0.055 0.052,0.084 -0.027,0.074 -0.06,0.145 -0.099,0.214 0.031,0.052 0.062,0.099 0.089,0.151 -3.265,3.735 0.135,9.828 0.135,9.828 l 3.197,14.242 3.577,0.579 3.765,-1.534 2.086,4.012 c 0,0 16.243,2.609 20.858,2.457 4.615,-0.151 -3.911,-7.976 -6.904,-10.298 -2.331,-1.81 -3.947,-11.529 -4.547,-15.697 0.433,-0.042 0.673,-0.073 0.673,-0.073 l -0.047,-0.287 h 0.099 l -2.044,-11.957 c -3.494,-3.01 -3.009,-45.771 -3.009,-45.771 0,0 -1.82,4.47 -1.877,4.11 0.177,-0.72 0.834,-2.754 2.357,-7.089 0.894,-2.486 1.556,-5.05 1.976,-7.658 1.653,-10.178 -1.429,-16.402 -1.429,-16.402 0.204,-2.045 -1.95,-9.99 -4.495,-18.452 l 7.994,-15.587 c 1.112,0.418 2.318,0.518 3.484,0.287 l 6.054,-10.955 c 0,0 12.515,-7.46 16.098,-6.881 3.332,0.521 13.771,-1.764 17.808,-6.114 0.29,-0.318 0.555,-0.658 0.792,-1.018 3.249,-4.982 1.914,26.011 1.914,26.011 l -1.736,10.736 -0.094,0.595 5.178,0.104 12.202,41.87 c 0,0 0.767,14.2 14.632,17.356 13.866,3.156 -5.746,-23.241 -5.746,-23.241 z m -83.346,-48.39 c -0.751,-2.316 -1.408,-4.314 -1.903,-5.812 l 2.581,-2.013 c 0,0 0.323,0.271 0.871,0.704 z"
       fill="url(#paint0_linear)"
       id="path172"
       style="fill:url(#paint0_linear)" />
  </g>
  <path
     d="m 172.15597,283.37512 c 0,0 1.68633,14.21078 4.47622,16.37019 2.79084,2.15943 10.7084,9.40932 6.41626,9.56861 -4.29213,0.15928 -19.39758,-2.27864 -19.39758,-2.27864 l -1.95436,-3.73226 -3.48236,1.42308 -3.32688,-0.53699 -2.98445,-13.28082 c 0,0 -4.18818,-7.5036 1.7054,-10.53384 5.89453,-3.03026 18.54775,3.00067 18.54775,3.00067 z"
     fill="#3a384d"
     id="path176"
     style="stroke-width:0.953809" />
  <path
     opacity="0.1"
     d="m 157.98525,166.86751 c 0,0 11.71371,34.87502 11.27114,39.35315 0,0 4.29214,8.65771 -0.44256,22.1169 -4.73567,13.46013 -0.4979,3.05027 -0.4979,3.05027 0,0 -0.44733,39.75185 2.79561,42.55317 l 1.89999,11.11568 c 0,0 -18.26352,2.16991 -21.33764,-3.44801 0,0 2.37785,-4.16433 0.0497,-17.91251 -2.32729,-13.74818 -6.81401,-44.04112 -6.81401,-44.04112 l -12.15627,-69.0986 z"
     fill="#000000"
     id="path178"
     style="stroke-width:0.953809" />
  <path
     d="m 158.03007,166.58899 c 0,0 11.71372,34.89507 11.27115,39.37318 0,0 4.29213,8.65773 -0.44257,22.1169 -4.73566,13.45918 -0.49789,3.05027 -0.49789,3.05027 0,0 -0.44733,39.75662 2.79562,42.55318 l 1.89998,11.12045 c 0,0 -18.26351,2.16419 -21.33763,-3.45279 0,0 2.37784,-4.16528 0.0495,-17.91346 -2.32728,-13.74723 -6.81876,-44.05543 -6.81876,-44.05543 l -12.15151,-69.10335 z"
     fill="#bec7de"
     id="path180"
     style="stroke-width:0.953809" />
  <path
     opacity="0.1"
     d="m 135.81207,152.08921 11.91307,67.74039 c 0,0 4.47621,30.30723 6.81877,44.05541 2.34255,13.74818 -0.0497,17.91251 -0.0497,17.91251 0.89467,1.63769 3.06839,2.60771 5.70472,3.1695 -3.70078,-0.43302 -7.03815,-1.4431 -8.20179,-3.57201 0,0 2.38262,-4.16528 0.0544,-17.91345 -2.3273,-13.74819 -6.81877,-44.05544 -6.81877,-44.05544 l -12.15628,-69.10335 z"
     fill="#000000"
     id="path182"
     style="stroke-width:0.953809" />
  <path
     d="m 135.62799,278.89222 c 0,0 1.68156,14.21077 4.47718,16.3702 2.79466,2.15942 10.70839,9.40932 6.41625,9.5686 -4.29308,0.15833 -19.39853,-2.2796 -19.39853,-2.2796 l -1.95435,-3.73129 -3.4814,1.42785 -3.32784,-0.54272 -2.98447,-13.27987 c 0,0 -4.18721,-7.5036 1.7016,-10.53384 5.88881,-3.03026 18.55156,3.00067 18.55156,3.00067 z"
     fill="#3a384d"
     id="path184"
     style="stroke-width:0.953809" />
  <path
     opacity="0.1"
     d="m 157.98525,166.86751 c 0,0 11.71371,34.87502 11.27114,39.35315 0,0 4.29214,8.65771 -0.44256,22.1169 -4.73567,13.46013 -0.4979,3.05027 -0.4979,3.05027 0,0 -0.44733,39.75185 2.79561,42.55317 l 1.89999,11.11568 c 0,0 -18.26352,2.16991 -21.33764,-3.44801 0,0 2.37785,-4.16433 0.0497,-17.91251 -2.32729,-13.74818 -6.81401,-44.04112 -6.81401,-44.04112 l -12.15627,-69.0986 z"
     fill="#000000"
     id="path186"
     style="stroke-width:0.953809" />
  <path
     opacity="0.1"
     d="m 120.86591,136.11675 c 0,0 -13.03569,5.00559 -6.0233,23.2071 0,0 10.53004,19.33559 11.26066,27.13774 l 13.33042,26.62077 c 0,0 -14.21556,28.14305 -14.84698,40.84108 0,0 -1.89997,17.04741 -9.56954,24.05312 0,0 16.498,14.04674 22.64052,5.93555 0,0 -1.84562,-9.6821 3.72081,-23.00775 5.56547,-13.32469 12.16582,-31.29729 12.16582,-31.29729 0,0 15.96102,-10.79233 5.32702,-32.99506 l -11.93786,-49.43395 -0.19363,-11.12617 -9.15655,-3.1838 z"
     fill="#000000"
     id="path188"
     style="stroke-width:0.953809" />
  <path
     opacity="0.1"
     d="m 120.26978,136.30084 c 0,0 -13.03665,5.00558 -6.02329,23.2071 0,0 10.5243,19.34131 11.25493,27.14249 l 13.33041,26.62078 c 0,0 -14.21555,28.13827 -14.83743,40.84109 0,0 -1.89999,17.04264 -9.57431,24.05312 0,0 16.498,14.04672 22.64625,5.9365 0,0 -1.85039,-9.68782 3.71507,-23.00869 5.56547,-13.31994 12.16583,-31.31733 12.16583,-31.31733 0,0 15.96578,-10.79233 5.33177,-32.99413 l -11.9369,-49.43489 -0.19457,-11.1252 -9.15083,-3.18478 z"
     fill="#000000"
     id="path190"
     style="stroke-width:0.953809" />
  <path
     d="m 120.31461,136.0271 c 0,0 -13.03665,5.0113 -6.02329,23.20709 0,0 7.73347,14.20601 10.39936,23.17752 1.1646,3.85339 2.66207,7.59804 4.47717,11.19007 l 9.70881,19.40618 c 0,0 -14.21555,28.14305 -14.8422,40.84108 0,0 -1.89999,17.04646 -9.57432,24.05217 0,0 16.49801,14.04674 22.6453,5.9365 0,0 -1.85039,-9.68305 3.71604,-23.00775 5.56546,-13.32564 12.16581,-31.31731 12.16581,-31.31731 0,0 15.96579,-10.7933 5.33178,-32.99507 l -11.93691,-49.43395 -0.19456,-11.12617 -9.15178,-3.18475 z"
     fill="#bec7de"
     id="path192"
     style="stroke-width:0.953809" />
  <path
     opacity="0.1"
     d="m 120.31461,136.0271 16.73647,-3.2687 2.18326,0.76114 -15.59285,3.03978 c 0,0 -13.03569,5.00558 -6.02329,23.2071 0,0 7.72965,14.20601 10.40031,23.17752 1.16365,3.85338 2.66208,7.59804 4.47622,11.19006 l 9.71358,19.40618 c 0,0 -14.23463,28.13257 -14.84602,40.8306 0,0 -1.90571,17.0474 -9.57527,24.05312 0,0 7.10778,6.05097 13.72815,7.9166 -7.30139,-0.14878 -17.05503,-8.45837 -17.05503,-8.45837 7.67433,-7.00666 9.57432,-24.05311 9.57432,-24.05311 0.62665,-12.69805 14.8422,-40.8411 14.8422,-40.8411 l -9.70881,-19.40616 c -1.8151,-3.59205 -3.31257,-7.33669 -4.47717,-11.19008 -2.66589,-8.95625 -10.39936,-23.17752 -10.39936,-23.17752 -7.01336,-18.17576 6.02329,-23.18706 6.02329,-23.18706 z"
     fill="#000000"
     id="path194"
     style="stroke-width:0.953809" />
  <path
     d="m 174.02638,171.44961 -10.38029,20.22643 c 0,0 3.0436,26.94888 -2.77081,27.71575 -5.81441,0.76591 -3.4814,-29.57661 -3.4814,-29.57661 l 5.59505,-25.83867 z"
     fill="#be7c5e"
     id="path196"
     style="stroke-width:0.953809" />
  <path
     d="m 230.76172,184.60548 7.42159,35.04956 c 0,0 18.2139,24.56532 5.32128,21.6295 -12.89166,-2.93486 -13.6032,-16.1556 -13.6032,-16.1556 l -12.43383,-42.69243 z"
     fill="#be7c5e"
     id="path198"
     style="stroke-width:0.953809" />
  <path
     d="m 238.15755,112.40223 -18.35317,11.54393 -6.54979,-17.5596 c 0,0 15.18937,1.03489 16.9606,-4.65266 1.77027,-5.6866 7.94236,10.66833 7.94236,10.66833 z"
     fill="#be7c5e"
     id="path200"
     style="stroke-width:0.953809" />
  <path
     d="m 228.73297,119.70172 -1.17413,-5.03039 -18.08992,1.05969 -7.28614,29.26282 13.57365,0.4874 7.59994,-11.85678 4.14238,-11.56397 z"
     fill="#be7c5e"
     id="path202"
     style="stroke-width:0.953809" />
  <path
     opacity="0.1"
     d="m 222.476,114.4224 1.49175,-8.43357 c 0,0 -33.47864,0.41776 -40.96413,8.02534 -7.48548,7.60852 -25.83864,10.33546 -25.83864,10.33546 l -30.5686,6.14919 -10.68932,4.53345 c 0,0 3.01404,11.295 4.3074,12.07617 1.29336,0.78117 15.72733,-11.11568 15.72733,-11.11568 l 5.47104,1.45264 -17.81617,18.73852 32.88157,32.34265 0.60758,-17.82285 4.21201,-3.29445 c 0,0 10.01212,8.45932 14.4788,7.1755 l 5.63033,-10.18572 c 0,0 11.63931,-6.93609 14.96619,-6.39908 3.09893,0.49788 12.80772,-1.63674 16.55811,-5.68185 0.26325,-0.28327 0.50265,-0.58849 0.7163,-0.91089 3.02358,-4.63263 1.78076,24.18285 1.78076,24.18285 l -1.70159,10.5329 18.13951,0.3739 -3.64068,-17.94304 c 0,0 0.18408,-18.74327 1.06922,-25.99794 0.88513,-7.25465 2.48657,-17.23148 -0.76115,-23.45126 l -6.38573,6.08052 -11.11187,17.84288 4.21774,-15.53371 z"
     fill="#000000"
     id="path204"
     style="stroke-width:0.953809" />
  <path
     d="m 222.57042,113.86537 -1.58713,-8.65294 c 0,0 -30.3845,0.63714 -37.86998,8.24472 -7.48548,7.60756 -25.86345,10.32972 -25.86345,10.32972 l -30.56954,6.15493 -10.64354,4.53822 c 0,0 3.01404,11.29499 4.3074,12.07138 1.29336,0.77545 15.73211,-11.11089 15.73211,-11.11089 l 5.47103,1.45265 -17.81617,18.7385 32.88156,32.34266 0.60662,-17.82762 4.22823,-3.29922 c 0,0 10.01213,8.45837 14.47881,7.18026 l 5.63032,-10.1857 c 0,0 11.57351,-6.9361 14.92137,-6.38384 3.09797,0.49694 12.80678,-1.64246 16.55715,-5.68756 0.26325,-0.28328 0.50265,-0.58754 0.71631,-0.91089 3.02451,-4.63168 1.78076,24.18761 1.78076,24.18761 l -1.70065,10.53386 18.13952,0.37293 -3.64163,-17.94207 c 0,0 0.18408,-18.749 1.06921,-25.99889 0.88609,-7.2499 2.48753,-17.23626 -0.76019,-23.45126 l -6.38669,6.05571 -11.12617,17.82858 4.21775,-15.53466 z"
     fill="#7faff2"
     id="path206"
     style="stroke-width:0.953809" />
  <path
     opacity="0.1"
     d="m 184.24738,124.88185 c 0,0 -18.10994,15.28 -20.00516,23.51041 z"
     fill="#000000"
     id="path208"
     style="stroke-width:0.953809" />
  <path
     opacity="0.1"
     d="m 204.01791,138.05202 c 0,0 -13.92655,10.54912 -16.41312,17.2563 z"
     fill="#000000"
     id="path210"
     style="stroke-width:0.953809" />
  <path
     opacity="0.1"
     d="m 163.34755,153.93482 c 0,0 -1.30862,6.32948 -1.5671,9.7031 z"
     fill="#000000"
     id="path212"
     style="stroke-width:0.953809" />
  <path
     opacity="0.1"
     d="m 156.72718,168.50901 c 0,0 -20.85978,-18.73374 -23.77939,-18.3503 z"
     fill="#000000"
     id="path214"
     style="stroke-width:0.953809" />
  <path
     opacity="0.1"
     d="m 230.43361,102.05246 c 1.69587,-5.44337 7.42635,9.31489 7.90803,10.58346 -0.54464,-0.0305 -1.08735,-0.0906 -1.62625,-0.17933 -2.17468,-0.34814 -4.25684,-1.13598 -6.11772,-2.31583 -1.86088,-1.17892 -3.46137,-2.72599 -4.70513,-4.5449 2.23381,-0.702 4.01362,-1.81128 4.54107,-3.5434 z"
     fill="#000000"
     id="path216"
     style="stroke-width:0.953809" />
  <path
     d="m 239.09323,112.34786 c 8.99345,0 16.28436,-7.29376 16.28436,-16.29102 0,-8.99728 -7.29091,-16.29105 -16.28436,-16.29105 -8.99346,0 -16.28435,7.29377 -16.28435,16.29105 0,8.99726 7.29089,16.29102 16.28435,16.29102 z"
     fill="#be7c5e"
     id="path218"
     style="stroke-width:0.953809" />
  <path
     opacity="0.1"
     d="m 252.31873,98.40511 c 1.2781,2.10505 2.44174,4.38942 4.41613,5.8621 1.97438,1.47268 5.0838,1.80555 6.72435,-0.0305 0.59708,-0.73442 1.00053,-1.60621 1.17413,-2.53712 1.20371,-5.13053 -0.9004,-10.44897 -3.63114,-14.97192 -3.29254,-5.42908 -7.66384,-10.34023 -13.21024,-13.43533 -5.54543,-3.09416 -12.36421,-4.1939 -18.3732,-2.13463 -6.00804,2.06023 -10.94208,7.56369 -11.43901,13.89317 -0.27375,3.23436 0.54176,6.53263 -0.12972,9.71262 -0.34814,1.65676 -1.09879,3.23436 -1.18367,4.92545 -0.15928,3.13994 1.98963,6.06051 1.79505,9.20044 -0.11922,1.93527 -1.10831,3.69219 -1.7159,5.53781 -1.49175,4.44855 -0.68578,9.29009 -0.99481,13.96756 -0.30808,4.67651 -2.3521,9.9215 -6.8283,11.30452 4.94835,2.48848 11.77284,-0.12876 13.78727,-5.29363 0.61141,-1.57759 0.83554,-3.32878 1.76551,-4.74233 1.57187,-2.38833 4.83961,-3.33357 6.15778,-5.87164 1.31816,-2.53713 0.1736,-5.62747 -1.26857,-8.0902 -1.44216,-2.46273 -3.24295,-4.94073 -3.27251,-7.79262 0.0105,-1.39159 0.44448,-2.7479 1.24377,-3.88771 0.79929,-1.13885 1.92668,-2.00776 3.23245,-2.49039 1.35822,-0.47309 2.82519,-0.49788 4.25208,-0.65718 3.54149,-0.45496 6.92369,-1.74641 9.86809,-3.76658 3.82476,-2.50279 4.85011,-3.2792 7.63046,1.29814 z"
     fill="#000000"
     id="path220"
     style="stroke-width:0.953809" />
  <path
     d="m 252.4227,97.69356 c 1.2781,2.10983 2.4427,4.38942 4.41709,5.86688 1.97436,1.47744 5.08283,1.8065 6.72434,-0.0295 0.59612,-0.73538 0.99958,-1.60812 1.17413,-2.53809 1.20371,-5.12957 -0.90039,-10.44896 -3.63115,-14.97191 -3.29255,-5.43384 -7.66479,-10.34023 -13.21023,-13.43438 -5.54639,-3.09511 -12.36516,-4.19008 -18.3732,-2.13463 -6.00899,2.0545 -12.05708,7.64286 -12.58931,13.97137 -0.27278,3.23437 0.12018,4.73185 -0.5513,7.90708 -0.34814,1.65676 0.4626,4.97506 0.37771,6.65757 -0.15928,3.13993 1.98964,6.0605 1.79506,9.20042 -0.11922,1.93529 -1.10832,3.69125 -1.7159,5.53304 -1.49175,4.45333 -0.68578,9.29391 -0.99481,13.97138 -0.30809,4.67747 -2.3521,9.91674 -6.82831,11.29976 4.94836,2.48848 11.77285,-0.12877 13.78728,-5.29363 0.61139,-1.57284 0.83554,-3.32402 1.76551,-4.73756 1.57186,-2.38834 4.83961,-3.33356 6.15778,-5.87069 1.31816,-2.53809 0.17359,-5.63319 -1.2638,-8.09592 -1.43738,-2.46273 -3.24772,-4.93595 -3.27729,-7.79165 0.0114,-1.39161 0.44544,-2.74697 1.24569,-3.88486 0.79929,-1.13885 1.92573,-2.00682 3.23054,-2.48944 1.35821,-0.47309 2.82517,-0.4979 4.25303,-0.65717 3.54054,-0.45688 6.92178,-1.74833 9.86714,-3.76659 3.84479,-2.51234 4.87013,-3.28396 7.64,1.28859 z"
     fill="#723647"
     id="path222"
     style="stroke-width:0.953809" />
  <path
     d="m 218.62833,107.12385 6.90844,1.11692 c 0.53698,0.0868 1.04251,-0.27661 1.12931,-0.81264 0.0868,-0.53605 -0.27852,-1.04061 -0.81551,-1.12741 l -6.90843,-1.1169 c -0.537,-0.0868 -1.04251,0.27755 -1.12931,0.81359 -0.0858,0.53509 0.27852,1.03965 0.8155,1.12644 z"
     fill="#252a62"
     id="path224"
     style="stroke-width:0.953809" />
  <path
     d="m 204.39084,244.63335 c 0.11447,7.79261 6.68525,13.93228 14.47405,13.93228 h 1.08447 c 0.95762,-0.003 1.87804,0.36817 2.56574,1.03487 0.52173,0.48932 0.88418,1.12359 1.03965,1.82178 0.0744,0.28042 0.11065,0.57037 0.10969,0.86033 v 13.75772 c -0.005,2.64587 0.75064,5.23737 2.1785,7.46451 2.07643,3.15424 3.20289,6.84071 3.24294,10.61778 0,0.88228 0.1755,1.75501 0.51602,2.56765 0.34146,0.8136 0.8403,1.55089 1.46885,2.16896 0.62953,0.61807 1.37445,1.10451 2.19377,1.43072 0.81837,0.32619 1.69397,0.48643 2.57528,0.47022 3.64163,-0.0649 6.49638,-3.19907 6.49638,-6.84644 v -3.43848 l 1.81032,0.20889 v 3.44897 c 0,0.88036 0.17645,1.75215 0.51697,2.56384 0.34147,0.81264 0.8403,1.54803 1.46886,2.16513 0.62857,0.61713 1.37254,1.10262 2.19091,1.42882 0.8174,0.32524 1.69205,0.48548 2.57242,0.46927 3.64639,-0.0649 6.50114,-3.19907 6.50114,-6.84644 v -1.74164 c 1.80556,0.75637 12.0466,0.75637 14.88608,0 l 0.77163,-0.0592 v 1.98964 c -0.003,0.88323 0.17073,1.75882 0.51029,2.57433 0.33955,0.8155 0.83839,1.55471 1.46791,2.17467 0.62855,0.62094 1.37538,1.10833 2.19566,1.43644 0.82028,0.32811 1.69683,0.48835 2.58005,0.47214 3.64069,-0.0649 6.49542,-3.19907 6.49542,-6.84644 v -2.85569 l 0.60187,-0.0554 v 3.13517 c 0.002,0.88036 0.1793,1.75214 0.52077,2.56288 0.34147,0.81169 0.84126,1.54707 1.46982,2.16323 0.62952,0.61617 1.37444,1.10165 2.19186,1.4269 0.8174,0.3262 1.69205,0.48548 2.57242,0.46927 1.60525,-0.0544 3.13898,-0.68007 4.3236,-1.76454 1.18558,-1.08448 1.94481,-2.55622 2.14226,-4.15098 0.0372,-0.30903 0.0573,-0.61997 0.0592,-0.93092 V 279.5235 c 0.006,-4.94263 -1.64913,-9.74409 -4.69941,-13.63373 -0.52841,-0.68769 -0.82505,-1.52704 -0.84508,-2.39405 -0.021,-0.86797 0.23464,-1.71971 0.73062,-2.43221 3.37171,-4.94073 8.36109,-13.27987 8.19607,-19.19157 0.0353,-1.60335 -0.52746,-3.16187 -1.57664,-4.37415 -0.0639,-0.0744 -0.13354,-0.14403 -0.1984,-0.21366 -4.85488,-5.08475 -13.39908,-1.08448 -12.65798,5.90597 0.25181,2.34161 0.083,4.70896 -0.49788,6.99143 -0.33669,1.28763 -0.79071,2.54189 -1.35823,3.74655 -0.56751,1.20847 -1.50034,2.20806 -2.66684,2.8576 -1.1665,0.64859 -2.50756,0.9147 -3.83336,0.76019 -0.90134,-0.11064 -1.80842,-0.16501 -2.71549,-0.16406 h -27.85309 c -1.63483,0 -3.22959,-0.51124 -4.55824,-1.46409 -1.32961,-0.9519 -2.3273,-2.29677 -2.85285,-3.84576 -0.28328,-0.81074 -0.42635,-1.66344 -0.42252,-2.52282 v -21.69427 c 0,-0.56466 -0.11352,-1.12454 -0.33384,-1.64437 -0.21939,-0.52078 -0.54176,-0.99196 -0.94714,-1.38587 -0.40536,-0.39299 -0.88609,-0.70106 -1.41259,-0.90518 -0.52649,-0.20507 -1.08924,-0.3014 -1.6539,-0.28328 -0.55129,0.02 -1.09306,0.14975 -1.59285,0.38344 -0.4998,0.23368 -0.94714,0.56465 -1.31722,0.97479 -0.7535,0.83077 -1.17222,1.91238 -1.17317,3.03501 0,0.29378 -0.0573,0.58468 -0.16883,0.85557 -0.11255,0.27183 -0.27661,0.51791 -0.48453,0.72584 -0.20698,0.20698 -0.45402,0.37199 -0.72489,0.48359 -0.27089,0.11254 -0.5618,0.16977 -0.85557,0.16882 h -13.16542 c -1.87613,0 -3.73414,0.37294 -5.46531,1.09783 -1.73116,0.7249 -3.30112,1.78649 -4.61834,3.12372 -1.3172,1.33725 -2.35591,2.92343 -3.05505,4.66508 -0.69817,1.74261 -1.04442,3.60634 -1.01676,5.48343 z"
     fill="#f3ad55"
     id="path226"
     style="stroke-width:0.953809" />
  <path
     d="m 288.59681,250.18167 c 4.68033,-1.88092 10.39077,-5.32417 14.92137,-8.30959 0.0343,-1.60335 -0.52747,-3.16187 -1.57665,-4.37415 -0.0639,-0.0744 -0.13353,-0.14403 -0.19839,-0.21366 -4.85488,-5.08475 -13.40005,-1.08448 -12.65894,5.90597 0.25562,2.34161 0.0906,4.70896 -0.48739,6.99143 z"
     fill="#fbdca3"
     id="path228"
     style="stroke-width:0.953809" />
  <path
     d="m 282.93214,257.42105 c 0,0 -12.88689,16.23095 -33.97081,-0.0391 z"
     fill="#fbdca3"
     id="path230"
     style="stroke-width:0.953809" />
  <path
     d="m 242.33618,227.25307 c 0,0 -7.82886,10.24581 0,22.88853 z"
     fill="#fbdca3"
     id="path232"
     style="stroke-width:0.953809" />
  <path
     d="m 223.66444,262.20345 c 0,0 6.89889,8.56805 0.0897,15.38492 z"
     fill="#fbdca3"
     id="path234"
     style="stroke-width:0.953809" />
  <path
     opacity="0.1"
     d="m 223.06259,260.39216 c 0.49693,0.49695 0.33859,0.94523 0.49693,1.652 l 22.38206,-5.86687 c -1.20276,-0.92996 -2.70024,-2.0297 -3.1924,-3.4833 -2.67639,2.06499 -7.98337,5.55879 -19.68659,7.69817 z"
     fill="#000000"
     id="path236"
     style="stroke-width:0.953809" />
  <path
     d="m 222.5151,259.62054 c 0.52173,0.48835 0.88418,1.12358 1.03965,1.82082 l 21.82979,-5.69137 c -1.218,-0.94046 -2.13174,-2.21951 -2.62582,-3.67789 -2.68593,2.08503 -8.54039,5.39951 -20.24362,7.54844 z"
     fill="#383f4d"
     id="path238"
     style="stroke-width:0.953809" />
  <path
     opacity="0.1"
     d="m 241.93844,253.27677 c 0,0 -6.82926,5.14006 -18.274,6.73197 z"
     fill="#000000"
     id="path240"
     style="stroke-width:0.953809" />
  <path
     d="m 241.93844,252.67491 c 0,0 -6.82926,5.13912 -18.274,6.73198 z"
     fill="#f3ad55"
     id="path242"
     style="stroke-width:0.953809" />
  <path
     opacity="0.1"
     d="m 224.86815,253.1623 c 0,0 -11.43998,3.61685 -14.454,-7.83171 z"
     fill="#000000"
     id="path244"
     style="stroke-width:0.953809" />
  <path
     d="m 224.86815,252.56046 c 0,0 -11.43998,3.61683 -14.454,-7.83268 z"
     fill="#fbdca3"
     id="path246"
     style="stroke-width:0.953809" />
  <path
     d="m 204.39084,245.33059 c 0.66481,0 1.20372,-0.94522 1.20372,-2.10982 0,-1.16555 -0.53891,-2.10983 -1.20372,-2.10983 -0.66479,0 -1.20369,0.94428 -1.20369,2.10983 0,1.1646 0.5389,2.10982 1.20369,2.10982 z"
     fill="#383f4d"
     id="path248"
     style="stroke-width:0.953809" />
  <path
     opacity="0.1"
     d="m 295.63972,286.60471 -2.40741,-19.28122 c 0,0 7.22699,11.44378 2.40741,19.28122 z"
     fill="#000000"
     id="path250"
     style="stroke-width:0.953809" />
  <path
     d="m 292.63046,267.32349 c 0,0 7.227,11.44378 2.40741,19.28122 z"
     fill="#fbdca3"
     id="path252"
     style="stroke-width:0.953809" />
  <defs
     id="defs261">
    <linearGradient
       id="paint0_linear"
       x1="109.21"
       y1="761.948"
       x2="267.12399"
       y2="787.45801"
       gradientUnits="userSpaceOnUse">
      <stop
         stop-color="#808080"
         stop-opacity="0.25"
         id="stop254" />
      <stop
         offset="0.54"
         stop-color="#808080"
         stop-opacity="0.12"
         id="stop256" />
      <stop
         offset="1"
         stop-color="#808080"
         stop-opacity="0.1"
         id="stop258" />
    </linearGradient>
  </defs>
</svg>
