<?xml version="1.0" encoding="UTF-8" standalone="no"?>
<svg
   width="404"
   height="648"
   viewBox="0 0 404 648"
   fill="none"
   version="1.1"
   id="svg8"
   sodipodi:docname="water-drop-design.svg"
   inkscape:version="1.1 (c68e22c387, 2021-05-23)"
   xmlns:inkscape="http://www.inkscape.org/namespaces/inkscape"
   xmlns:sodipodi="http://sodipodi.sourceforge.net/DTD/sodipodi-0.dtd"
   xmlns="http://www.w3.org/2000/svg"
   xmlns:svg="http://www.w3.org/2000/svg">
  <defs
     id="defs12" />
  <sodipodi:namedview
     id="namedview10"
     pagecolor="#505050"
     bordercolor="#ffffff"
     borderopacity="1"
     inkscape:pageshadow="0"
     inkscape:pageopacity="0"
     inkscape:pagecheckerboard="1"
     showgrid="false"
     inkscape:zoom="0.67551033"
     inkscape:cx="234.63742"
     inkscape:cy="327.90024"
     inkscape:window-width="1440"
     inkscape:window-height="847"
     inkscape:window-x="-8"
     inkscape:window-y="-8"
     inkscape:window-maximized="1"
     inkscape:current-layer="svg8" />
  <path
     d="m 200.95023,0.895736 c -5.92749,0 -10.97589,2.9613724 -13.93963,8.2271769 C 70.121264,220.06261 0.20693413,383.39583 0.20693413,446.14042 c 0,110.67991 90.10921487,200.62866 200.74329587,200.62866 110.63328,0 200.74249,-90.05784 200.74249,-200.62866 0,-62.63469 -69.91402,-226.07781 -186.91353,-437.0175071 C 212.03521,3.8571084 206.98681,0.895736 200.95023,0.895736 Z"
     fill="#cccccb"
     id="path2"
     style="stroke-width:0.790543" />
  <path
     d="m 200.95023,116.73174 c -4.39067,0 -8.12204,2.19383 -10.20748,6.0331 C 104.36487,278.52877 52.779844,399.19167 52.779844,445.4819 c 0,81.72155 66.512066,148.19591 148.279476,148.19591 81.7682,0 148.17062,-66.47436 148.17062,-148.19591 0,-46.29023 -51.58527,-166.95313 -137.96312,-322.71706 -2.19535,-3.83927 -5.92671,-6.0331 -10.31659,-6.0331 z"
     fill="#ffffff"
     id="path4"
     style="stroke-width:0.790543" />
  <path
     d="m 99.316478,436.70687 c 0,48.48398 32.817012,90.49658 79.791842,102.12388 z"
     fill="#cccccb"
     id="path6"
     style="stroke-width:0.790543" />
</svg>
